<svg width="284" height="66" viewBox="0 0 284 66" fill="none" xmlns="http://www.w3.org/2000/svg">
    <path d="M37.024 63H29.12V36.088H13.888V53.88C13.888 54.904 14.1333 55.704 14.624 56.28C15.136 56.856 15.8293 57.144 16.704 57.144C17.1947 57.144 17.6 57.0907 17.92 56.984C18.2613 56.856 18.5493 56.728 18.784 56.6C19.04 56.472 19.264 56.3547 19.456 56.248C19.648 56.12 19.84 56.056 20.032 56.056C20.2667 56.056 20.4587 56.12 20.608 56.248C20.7573 56.3547 20.9173 56.5253 21.088 56.76L23.456 60.6C22.304 61.56 20.9813 62.2853 19.488 62.776C17.9947 63.2667 16.448 63.512 14.848 63.512C11.9893 63.512 9.792 62.712 8.256 61.112C6.74133 59.4907 5.984 57.2613 5.984 54.424V36.088H2.624C2.19733 36.088 1.83467 35.9493 1.536 35.672C1.23733 35.3947 1.088 34.9787 1.088 34.424V31.288L6.368 30.392L8.032 21.464C8.13867 21.0373 8.34133 20.7067 8.64 20.472C8.93867 20.2373 9.32267 20.12 9.792 20.12H13.888V30.456H37.024V63ZM38.4 20.472C38.4 21.1547 38.2613 21.8053 37.984 22.424C37.7067 23.0213 37.3333 23.544 36.864 23.992C36.416 24.44 35.872 24.8027 35.232 25.08C34.6133 25.336 33.952 25.464 33.248 25.464C32.5653 25.464 31.9253 25.336 31.328 25.08C30.7307 24.8027 30.208 24.44 29.76 23.992C29.312 23.544 28.9493 23.0213 28.672 22.424C28.416 21.8053 28.288 21.1547 28.288 20.472C28.288 19.768 28.416 19.1173 28.672 18.52C28.9493 17.9013 29.312 17.368 29.76 16.92C30.208 16.4507 30.7307 16.088 31.328 15.832C31.9253 15.5547 32.5653 15.416 33.248 15.416C33.952 15.416 34.6133 15.5547 35.232 15.832C35.872 16.088 36.416 16.4507 36.864 16.92C37.3333 17.368 37.7067 17.9013 37.984 18.52C38.2613 19.1173 38.4 19.768 38.4 20.472ZM68.6115 37.112C68.3768 37.4107 68.1422 37.6453 67.9075 37.816C67.6942 37.9867 67.3742 38.072 66.9475 38.072C66.5422 38.072 66.1475 37.9547 65.7635 37.72C65.3795 37.464 64.9208 37.1867 64.3875 36.888C63.8542 36.568 63.2142 36.2907 62.4675 36.056C61.7422 35.8 60.8355 35.672 59.7475 35.672C58.3608 35.672 57.1448 35.928 56.0995 36.44C55.0542 36.9307 54.1795 37.6453 53.4755 38.584C52.7928 39.5227 52.2808 40.664 51.9395 42.008C51.5982 43.3307 51.4275 44.8347 51.4275 46.52C51.4275 48.2693 51.6088 49.8267 51.9715 51.192C52.3555 52.5573 52.8995 53.7093 53.6035 54.648C54.3075 55.5653 55.1608 56.2693 56.1635 56.76C57.1662 57.2293 58.2968 57.464 59.5555 57.464C60.8142 57.464 61.8275 57.3147 62.5955 57.016C63.3848 56.696 64.0462 56.3547 64.5795 55.992C65.1128 55.608 65.5715 55.2667 65.9555 54.968C66.3608 54.648 66.8088 54.488 67.2995 54.488C67.9395 54.488 68.4195 54.7333 68.7395 55.224L71.0115 58.104C70.1368 59.128 69.1875 59.992 68.1635 60.696C67.1395 61.3787 66.0728 61.9333 64.9635 62.36C63.8755 62.7653 62.7448 63.0533 61.5715 63.224C60.4195 63.3947 59.2675 63.48 58.1155 63.48C56.0888 63.48 54.1795 63.1067 52.3875 62.36C50.5955 61.592 49.0275 60.4827 47.6835 59.032C46.3395 57.5813 45.2728 55.8107 44.4835 53.72C43.7155 51.608 43.3315 49.208 43.3315 46.52C43.3315 44.1093 43.6728 41.88 44.3555 39.832C45.0595 37.7627 46.0835 35.9813 47.4275 34.488C48.7715 32.9733 50.4355 31.7893 52.4195 30.936C54.4035 30.0827 56.6862 29.656 59.2675 29.656C61.7208 29.656 63.8648 30.0507 65.6995 30.84C67.5555 31.6293 69.2195 32.76 70.6915 34.232L68.6115 37.112ZM83.8705 15.448V42.68H85.3425C85.8758 42.68 86.2918 42.616 86.5905 42.488C86.9105 42.3387 87.2305 42.0507 87.5505 41.624L95.7105 31.544C96.0518 31.096 96.4252 30.7547 96.8305 30.52C97.2572 30.2853 97.8012 30.168 98.4625 30.168H105.694L95.4865 42.36C94.7612 43.32 93.9718 44.056 93.1185 44.568C93.5665 44.888 93.9612 45.2613 94.3025 45.688C94.6652 46.1147 95.0065 46.5733 95.3265 47.064L106.271 63H99.1345C98.5158 63 97.9825 62.904 97.5345 62.712C97.0865 62.4987 96.7132 62.1253 96.4145 61.592L88.0305 49.144C87.7318 48.6533 87.4225 48.3333 87.1025 48.184C86.7825 48.0347 86.3025 47.96 85.6625 47.96H83.8705V63H75.9665V15.448H83.8705ZM129.619 42.808C129.619 41.784 129.469 40.824 129.171 39.928C128.893 39.0107 128.467 38.2107 127.891 37.528C127.315 36.8453 126.579 36.312 125.683 35.928C124.808 35.5227 123.784 35.32 122.611 35.32C120.328 35.32 118.525 35.9707 117.203 37.272C115.901 38.5733 115.069 40.4187 114.707 42.808H129.619ZM114.547 47.576C114.675 49.2613 114.973 50.7227 115.443 51.96C115.912 53.176 116.531 54.1893 117.299 55C118.067 55.7893 118.973 56.3867 120.019 56.792C121.085 57.176 122.259 57.368 123.539 57.368C124.819 57.368 125.917 57.2187 126.835 56.92C127.773 56.6213 128.584 56.2907 129.267 55.928C129.971 55.5653 130.579 55.2347 131.091 54.936C131.624 54.6373 132.136 54.488 132.627 54.488C133.288 54.488 133.779 54.7333 134.099 55.224L136.371 58.104C135.496 59.128 134.515 59.992 133.427 60.696C132.339 61.3787 131.197 61.9333 130.003 62.36C128.829 62.7653 127.624 63.0533 126.387 63.224C125.171 63.3947 123.987 63.48 122.835 63.48C120.552 63.48 118.429 63.1067 116.467 62.36C114.504 61.592 112.797 60.472 111.347 59C109.896 57.5067 108.755 55.672 107.923 53.496C107.091 51.2987 106.674 48.76 106.674 45.88C106.674 43.64 107.037 41.5387 107.763 39.576C108.488 37.592 109.523 35.8747 110.867 34.424C112.232 32.952 113.885 31.7893 115.827 30.936C117.789 30.0827 119.997 29.656 122.451 29.656C124.52 29.656 126.429 29.9867 128.179 30.648C129.928 31.3093 131.432 32.28 132.691 33.56C133.949 34.8187 134.931 36.376 135.635 38.232C136.36 40.0667 136.722 42.168 136.722 44.536C136.722 45.7307 136.595 46.5413 136.339 46.968C136.083 47.3733 135.592 47.576 134.867 47.576H114.547ZM153.286 63.512C150.427 63.512 148.23 62.712 146.694 61.112C145.179 59.4907 144.422 57.2613 144.422 54.424V36.088H141.062C140.635 36.088 140.272 35.9493 139.974 35.672C139.675 35.3947 139.526 34.9787 139.526 34.424V31.288L144.806 30.424L146.47 21.464C146.576 21.0373 146.779 20.7067 147.078 20.472C147.376 20.2373 147.76 20.12 148.23 20.12H152.326V30.456H161.094V36.088H152.326V53.88C152.326 54.904 152.571 55.704 153.062 56.28C153.574 56.856 154.267 57.144 155.142 57.144C155.632 57.144 156.038 57.0907 156.358 56.984C156.699 56.856 156.987 56.728 157.222 56.6C157.478 56.472 157.702 56.3547 157.894 56.248C158.086 56.12 158.278 56.056 158.47 56.056C158.704 56.056 158.896 56.12 159.046 56.248C159.195 56.3547 159.355 56.5253 159.526 56.76L161.894 60.6C160.742 61.56 159.419 62.2853 157.926 62.776C156.432 63.2667 154.886 63.512 153.286 63.512Z" fill="url(#paint0_linear_62_8)" />
    <path d="M193.819 55.896V63H166.715V16.728H175.323V55.896H193.819ZM218.181 42.808C218.181 41.784 218.032 40.824 217.733 39.928C217.456 39.0107 217.029 38.2107 216.453 37.528C215.877 36.8453 215.141 36.312 214.245 35.928C213.37 35.5227 212.346 35.32 211.173 35.32C208.89 35.32 207.088 35.9707 205.765 37.272C204.464 38.5733 203.632 40.4187 203.269 42.808H218.181ZM203.109 47.576C203.237 49.2613 203.536 50.7227 204.005 51.96C204.474 53.176 205.093 54.1893 205.861 55C206.629 55.7893 207.536 56.3867 208.581 56.792C209.648 57.176 210.821 57.368 212.101 57.368C213.381 57.368 214.48 57.2187 215.397 56.92C216.336 56.6213 217.146 56.2907 217.829 55.928C218.533 55.5653 219.141 55.2347 219.653 54.936C220.186 54.6373 220.698 54.488 221.189 54.488C221.85 54.488 222.341 54.7333 222.661 55.224L224.933 58.104C224.058 59.128 223.077 59.992 221.989 60.696C220.901 61.3787 219.76 61.9333 218.565 62.36C217.392 62.7653 216.186 63.0533 214.949 63.224C213.733 63.3947 212.549 63.48 211.397 63.48C209.114 63.48 206.992 63.1067 205.029 62.36C203.066 61.592 201.36 60.472 199.909 59C198.458 57.5067 197.317 55.672 196.485 53.496C195.653 51.2987 195.237 48.76 195.237 45.88C195.237 43.64 195.6 41.5387 196.325 39.576C197.05 37.592 198.085 35.8747 199.429 34.424C200.794 32.952 202.448 31.7893 204.389 30.936C206.352 30.0827 208.56 29.656 211.013 29.656C213.082 29.656 214.992 29.9867 216.741 30.648C218.49 31.3093 219.994 32.28 221.253 33.56C222.512 34.8187 223.493 36.376 224.197 38.232C224.922 40.0667 225.285 42.168 225.285 44.536C225.285 45.7307 225.157 46.5413 224.901 46.968C224.645 47.3733 224.154 47.576 223.429 47.576H203.109ZM251.249 36.568C251.035 36.9093 250.811 37.1547 250.577 37.304C250.342 37.432 250.043 37.496 249.681 37.496C249.297 37.496 248.881 37.3893 248.433 37.176C248.006 36.9627 247.505 36.728 246.929 36.472C246.353 36.1947 245.691 35.9493 244.944 35.736C244.219 35.5227 243.355 35.416 242.353 35.416C240.795 35.416 239.569 35.7467 238.673 36.408C237.798 37.0693 237.361 37.9333 237.361 39C237.361 39.704 237.585 40.3013 238.033 40.792C238.502 41.2613 239.11 41.6773 239.857 42.04C240.625 42.4027 241.489 42.7333 242.449 43.032C243.409 43.3093 244.379 43.6187 245.361 43.96C246.363 44.3013 247.345 44.696 248.305 45.144C249.265 45.5707 250.118 46.1253 250.865 46.808C251.633 47.4693 252.241 48.2693 252.689 49.208C253.158 50.1467 253.393 51.2773 253.393 52.6C253.393 54.1787 253.105 55.64 252.529 56.984C251.974 58.3067 251.142 59.4587 250.033 60.44C248.923 61.4 247.547 62.1573 245.905 62.712C244.283 63.2453 242.406 63.512 240.273 63.512C239.142 63.512 238.033 63.4053 236.945 63.192C235.878 63 234.843 62.7227 233.841 62.36C232.859 61.9973 231.942 61.5707 231.089 61.08C230.257 60.5893 229.521 60.056 228.881 59.48L230.705 56.472C230.939 56.1093 231.217 55.832 231.536 55.64C231.856 55.448 232.262 55.352 232.753 55.352C233.243 55.352 233.702 55.4907 234.129 55.768C234.577 56.0453 235.089 56.344 235.665 56.664C236.241 56.984 236.913 57.2827 237.681 57.56C238.47 57.8373 239.462 57.976 240.657 57.976C241.595 57.976 242.395 57.8693 243.057 57.656C243.739 57.4213 244.294 57.1227 244.721 56.76C245.169 56.3973 245.488 55.9813 245.681 55.512C245.894 55.0213 246.001 54.52 246.001 54.008C246.001 53.24 245.766 52.6107 245.297 52.12C244.849 51.6293 244.241 51.2027 243.472 50.84C242.726 50.4773 241.862 50.1573 240.881 49.88C239.921 49.5813 238.929 49.2613 237.905 48.92C236.902 48.5787 235.91 48.184 234.929 47.736C233.969 47.2667 233.105 46.68 232.337 45.976C231.59 45.272 230.982 44.408 230.513 43.384C230.065 42.36 229.841 41.1227 229.841 39.672C229.841 38.328 230.107 37.048 230.641 35.832C231.174 34.616 231.953 33.56 232.977 32.664C234.022 31.7467 235.313 31.0213 236.849 30.488C238.406 29.9333 240.198 29.656 242.225 29.656C244.486 29.656 246.545 30.0293 248.401 30.776C250.257 31.5227 251.803 32.504 253.041 33.72L251.249 36.568ZM279.374 36.568C279.16 36.9093 278.936 37.1547 278.702 37.304C278.467 37.432 278.168 37.496 277.806 37.496C277.422 37.496 277.006 37.3893 276.558 37.176C276.131 36.9627 275.63 36.728 275.054 36.472C274.478 36.1947 273.816 35.9493 273.069 35.736C272.344 35.5227 271.48 35.416 270.478 35.416C268.92 35.416 267.694 35.7467 266.798 36.408C265.923 37.0693 265.486 37.9333 265.486 39C265.486 39.704 265.71 40.3013 266.158 40.792C266.627 41.2613 267.235 41.6773 267.982 42.04C268.75 42.4027 269.614 42.7333 270.574 43.032C271.534 43.3093 272.504 43.6187 273.486 43.96C274.488 44.3013 275.47 44.696 276.43 45.144C277.39 45.5707 278.243 46.1253 278.99 46.808C279.758 47.4693 280.366 48.2693 280.814 49.208C281.283 50.1467 281.518 51.2773 281.518 52.6C281.518 54.1787 281.23 55.64 280.654 56.984C280.099 58.3067 279.267 59.4587 278.158 60.44C277.048 61.4 275.672 62.1573 274.03 62.712C272.408 63.2453 270.531 63.512 268.398 63.512C267.267 63.512 266.158 63.4053 265.07 63.192C264.003 63 262.968 62.7227 261.966 62.36C260.984 61.9973 260.067 61.5707 259.214 61.08C258.382 60.5893 257.646 60.056 257.006 59.48L258.83 56.472C259.064 56.1093 259.342 55.832 259.661 55.64C259.981 55.448 260.387 55.352 260.878 55.352C261.368 55.352 261.827 55.4907 262.254 55.768C262.702 56.0453 263.214 56.344 263.79 56.664C264.366 56.984 265.038 57.2827 265.806 57.56C266.595 57.8373 267.587 57.976 268.782 57.976C269.72 57.976 270.52 57.8693 271.182 57.656C271.864 57.4213 272.419 57.1227 272.846 56.76C273.294 56.3973 273.613 55.9813 273.806 55.512C274.019 55.0213 274.126 54.52 274.126 54.008C274.126 53.24 273.891 52.6107 273.422 52.12C272.974 51.6293 272.366 51.2027 271.597 50.84C270.851 50.4773 269.987 50.1573 269.006 49.88C268.046 49.5813 267.054 49.2613 266.03 48.92C265.027 48.5787 264.035 48.184 263.054 47.736C262.094 47.2667 261.23 46.68 260.462 45.976C259.715 45.272 259.107 44.408 258.638 43.384C258.19 42.36 257.966 41.1227 257.966 39.672C257.966 38.328 258.232 37.048 258.766 35.832C259.299 34.616 260.078 33.56 261.102 32.664C262.147 31.7467 263.438 31.0213 264.974 30.488C266.531 29.9333 268.323 29.656 270.35 29.656C272.611 29.656 274.67 30.0293 276.526 30.776C278.382 31.5227 279.928 32.504 281.166 33.72L279.374 36.568Z" fill="url(#paint1_linear_62_8)" />
    <defs>
        <linearGradient id="paint0_linear_62_8" x1="81.5" y1="9.62486e-06" x2="182" y2="145.612" gradientUnits="userSpaceOnUse">
            <stop stop-color="#D20D0D" />
            <stop offset="1" stop-color="#D90E0E" stop-opacity="0" />
        </linearGradient>
        <linearGradient id="paint1_linear_62_8" x1="234.108" y1="6.34228e-07" x2="199.914" y2="79.1949" gradientUnits="userSpaceOnUse">
            <stop stop-color="#FFFDFD" />
            <stop offset="1" stop-color="#E4E4E4" stop-opacity="0.31" />
        </linearGradient>
    </defs>
</svg>